<svg id="Grupo_4452" data-name="Grupo 4452" xmlns="http://www.w3.org/2000/svg" xmlns:xlink="http://www.w3.org/1999/xlink" width="11.016" height="9.699" viewBox="0 0 11.016 9.699">
  <defs>
    <clipPath id="clip-path">
      <rect id="Rectángulo_1240" data-name="Rectángulo 1240" width="11.016" height="9.699" fill="#2c8b9e"/>
    </clipPath>
  </defs>
  <g id="Grupo_4451" data-name="Grupo 4451" transform="translate(0 0)">
    <g id="Grupo_4450" data-name="Grupo 4450" transform="translate(0 0)" clip-path="url(#clip-path)">
      <path id="Trazado_8313" data-name="Trazado 8313" d="M.253,8.221,3.618,4.849.253,1.478A.866.866,0,0,1,1.479.253L5.6,4.377a.668.668,0,0,1,0,.945L1.479,9.445A.866.866,0,0,1,.253,8.221" transform="translate(5.218 0)" fill="#2c8b9e"/>
      <path id="Trazado_8314" data-name="Trazado 8314" d="M4.763,8.221,8.128,4.849,4.763,1.478A.866.866,0,0,1,5.989.253l4.122,4.123a.668.668,0,0,1,0,.945L5.989,9.445A.866.866,0,0,1,4.763,8.221" transform="translate(-4.511 0)" fill="#2c8b9e"/>
    </g>
  </g>
</svg>
