<?xml version="1.0" encoding="utf-8"?>
<!-- Generator: Adobe Illustrator 26.5.0, SVG Export Plug-In . SVG Version: 6.00 Build 0)  -->
<svg version="1.1" id="Capa_1" xmlns="http://www.w3.org/2000/svg" xmlns:xlink="http://www.w3.org/1999/xlink" x="0px" y="0px"
	 viewBox="0 0 38 38" style="enable-background:new 0 0 38 38;" xml:space="preserve">
<style type="text/css">
	.st0{fill:#FFFFFF;}
</style>
<g id="Grupo_6923" transform="translate(-0.212 -0.353)">
	<path id="Elipse_34" class="st0" d="M19.2,1.9C9.5,1.9,1.7,9.7,1.7,19.4c0,4.6,1.8,9.1,5.1,12.4c6.9,6.8,18,6.7,24.7-0.2
		c6.7-6.8,6.7-17.7,0-24.6C28.3,3.7,23.9,1.8,19.2,1.9 M19.2,0.4c10.5,0,19,8.5,19,19s-8.5,19-19,19s-19-8.5-19-19S8.7,0.4,19.2,0.4
		z"/>
	<path id="Trazado_1332" class="st0" d="M18.5,14c0.9,0,1.6,0.7,1.6,1.6v10.7c0,0.9-0.7,1.6-1.6,1.6c-0.9,0-1.6-0.7-1.6-1.6V15.6
		C16.9,14.7,17.6,14,18.5,14z"/>
	<path id="Trazado_238" class="st0" d="M18.6,12.4c-0.9,0-1.7-0.7-1.7-1.7c0-0.9,0.7-1.7,1.7-1.7s1.7,0.7,1.7,1.7
		C20.3,11.6,19.5,12.4,18.6,12.4C18.6,12.4,18.6,12.4,18.6,12.4z"/>
</g>
</svg>
