<svg xmlns="http://www.w3.org/2000/svg" width="11" height="7" viewBox="0 0 11 7">
  <g id="flechas_tablas" data-name="flechas tablas" transform="translate(11 7) rotate(180)">
    <g id="Polígono_140" data-name="Polígono 140" transform="translate(11 7) rotate(180)" fill="none">
      <path d="M4.714,1A1,1,0,0,1,6.286,1L9.729,5.382A1,1,0,0,1,8.943,7H2.057a1,1,0,0,1-.786-1.618Z" stroke="none"/>
      <path d="M 5.5 1.618588924407959 L 2.057462692260742 5.999985218048096 C 2.057464599609375 5.999989986419678 2.057467460632324 5.999994277954102 2.057459831237793 5.999999046325684 L 8.942529678344727 5.999999046325684 L 5.501959800720215 1.618788719177246 C 5.50177001953125 1.618728637695312 5.501029968261719 1.618588924407959 5.5 1.618588924407959 M 5.5 0.61859130859375 C 5.793065071105957 0.61859130859375 6.086130142211914 0.7459836006164551 6.286320209503174 1.000768661499023 L 9.728850364685059 5.382178783416748 C 10.24437999725342 6.038308620452881 9.776969909667969 6.999999046325684 8.942540168762207 6.999999046325684 L 2.057459831237793 6.999999046325684 C 1.223030090332031 6.999999046325684 0.755620002746582 6.038308620452881 1.271140098571777 5.382178783416748 L 4.713679790496826 1.000768661499023 C 4.913869857788086 0.7459836006164551 5.206934928894043 0.61859130859375 5.5 0.61859130859375 Z" stroke="none" fill="#707070"/>
    </g>
  </g>
</svg>
